<svg width="40" height="40" viewBox="0 0 40 40" fill="none" xmlns="http://www.w3.org/2000/svg">
<circle cx="20" cy="20" r="20" fill="#960316"/>
<path d="M9.36586 26.9743L8.52124 24.5611C11.4171 23.5958 12.5935 22.0574 12.5935 19.071L12.5951 17.6226V17.6231H15.1289L15.1274 19.7347C15.1274 21.7557 14.5542 23.3846 13.4381 24.5611C12.322 25.7677 10.9646 26.5821 9.36586 26.9743ZM11.5996 13.581C11.5996 12.4045 12.5046 11.4694 13.681 11.4694C14.8574 11.4694 15.7624 12.4045 15.7624 13.581C15.7624 14.7574 14.8574 15.6322 13.681 15.6322C12.5046 15.6322 11.5996 14.6971 11.5996 13.581Z" fill="#FDF8DA"/>
<path d="M24.6107 26.9139C22.5896 26.9139 20.9004 25.9788 19.9653 24.742V32.8262H17.4314V11.4693H19.9653V13.4904C20.9004 12.1933 22.6499 11.228 24.6107 11.228C28.9846 11.228 31.5788 14.335 31.5788 19.071C31.5788 23.8069 28.9846 26.9139 24.6107 26.9139ZM27.7478 23.0829C28.5623 22.0573 28.9846 20.73 28.9846 19.071C28.9846 17.4119 28.5623 16.0846 27.7478 15.059C26.9334 14.0334 25.7871 13.5206 24.3694 13.5206C22.9516 13.5206 21.8053 14.0334 20.9909 15.059C20.1764 16.0846 19.7541 17.4119 19.7541 19.071C19.7541 20.73 20.1764 22.0573 20.9909 23.0829C21.8053 24.1085 22.9516 24.6213 24.3694 24.6213C25.7871 24.6213 26.9334 24.1085 27.7478 23.0829Z" fill="#FDF8DA"/>
</svg>
