<svg width="785" height="736" viewBox="0 0 785 736" fill="none" xmlns="http://www.w3.org/2000/svg">
<path d="M28.7552 536.081L0 453.923C98.5891 421.06 138.641 368.685 138.641 267.014L138.693 217.703V217.719H224.959L224.906 289.608C224.906 358.415 205.394 413.871 167.396 453.923C129.398 495.002 83.1846 522.73 28.7552 536.081ZM104.804 80.1054C104.804 40.0535 135.613 8.21747 175.664 8.21747C215.716 8.21747 246.525 40.0535 246.525 80.1054C246.525 120.157 215.716 149.939 175.664 149.939C135.613 149.939 104.804 118.103 104.804 80.1054Z" fill="#031331"/>
<path d="M547.77 534.025C478.963 534.025 421.453 502.189 389.617 460.083L389.617 735.311H303.352L303.352 8.21578L389.617 8.21578V77.0227C421.453 32.863 481.017 0 547.77 0C696.681 0 785 105.779 785 267.013C785 428.247 696.681 534.025 547.77 534.025ZM654.575 403.6C682.303 368.683 696.681 323.496 696.681 267.013C696.681 210.529 682.303 165.342 654.575 130.425C626.847 95.5081 587.822 78.0497 539.555 78.0497C491.287 78.0497 452.262 95.5081 424.534 130.425C396.806 165.342 382.428 210.529 382.428 267.013C382.428 323.496 396.806 368.683 424.534 403.6C452.262 438.517 491.287 455.975 539.555 455.975C587.822 455.975 626.847 438.517 654.575 403.6Z" fill="#031331"/>
</svg>
